<svg width="150" height="41" viewBox="0 0 150 41" fill="none" xmlns="http://www.w3.org/2000/svg">
<path d="M15.5625 7.05078L11.625 5.84766C11.7344 5.08203 11.8073 4.39844 11.8438 3.79688C11.8802 3.17708 11.9531 2.63021 12.0625 2.15625C13.6484 1.44531 16.2826 0.861979 19.9648 0.40625C20.5482 0.333333 21.0586 0.296875 21.4961 0.296875C21.9518 0.84375 22.2799 1.36328 22.4805 1.85547L35.1406 33.7383C35.6875 35.1419 36.3164 36.181 37.0273 36.8555C37.7565 37.5117 38.668 37.8854 39.7617 37.9766V40H22.2891V38.2773C22.7448 38.0039 23.2096 37.8034 23.6836 37.6758C24.1758 37.5299 24.6224 37.3932 25.0234 37.2656C25.8984 37.0104 26.3359 36.5547 26.3359 35.8984C26.3359 35.5339 26.1628 34.9049 25.8164 34.0117L15.5625 7.05078ZM16.0273 15.5L9.875 33.1094C9.58333 33.9297 9.4375 34.6133 9.4375 35.1602C9.4375 35.707 9.59245 36.1354 9.90234 36.4453C10.2122 36.737 10.5951 36.974 11.0508 37.1562C11.5247 37.3203 12.026 37.4661 12.5547 37.5938C13.0833 37.7214 13.5755 37.9036 14.0312 38.1406V40H0.933594V38.1406C1.29818 37.9036 1.6901 37.7122 2.10938 37.5664C2.54688 37.4206 2.98438 37.2292 3.42188 36.9922C4.44271 36.3906 5.20833 35.3971 5.71875 34.0117L14.2227 10.6602L16.0273 15.5ZM20.9492 28.3516H14.2227L15.125 25.4531H19.8555L20.9492 28.3516ZM72.918 40.8203L72.207 40.8477C67.4128 40.8477 63.5482 39.9089 60.6133 38.0312C57.6602 36.1172 56.1836 33.6471 56.1836 30.6211C56.1836 27.2852 57.6146 24.4779 60.4766 22.1992C61.3698 21.4883 62.3633 20.8776 63.457 20.3672L65.5625 23.6484C65.2526 24.724 65.0977 26.5104 65.0977 29.0078C65.0977 31.013 65.8542 32.8177 67.3672 34.4219C68.9167 36.0807 70.7669 37.056 72.918 37.3477V40.8203ZM74.3125 14.8438C76.9922 13.2214 78.332 10.8698 78.332 7.78906C78.332 6.78646 78.0495 5.91146 77.4844 5.16406C76.9193 4.41667 76.026 3.96094 74.8047 3.79688V0.296875C77.3932 0.479167 79.5169 1.28125 81.1758 2.70312C82.8893 4.16146 83.7461 5.99349 83.7461 8.19922C83.7461 11.3711 82.1146 13.8776 78.8516 15.7188C77.9036 16.2656 76.9284 16.7852 75.9258 17.2773L74.3125 14.8438ZM96.1602 32.5078C95.5768 35.151 94.6654 37.1198 93.4258 38.4141C92.2044 39.6901 90.4089 40.3281 88.0391 40.3281C85.6875 40.3281 83.4818 39.3164 81.4219 37.293C79.526 39.0247 77.3203 40.1276 74.8047 40.6016V37.3477C76.4635 37.1654 77.8945 36.5 79.0977 35.3516C78.6055 34.8047 77.9857 34.1576 77.2383 33.4102C76.4909 32.6628 75.6797 31.8333 74.8047 30.9219C73.9297 30.0104 73.0091 29.0352 72.043 27.9961C71.0951 26.9388 70.1562 25.8451 69.2266 24.7148C68.3151 23.5664 67.4401 22.3906 66.6016 21.1875C65.7812 19.9661 65.0612 18.7448 64.4414 17.5234C63.0742 14.8073 62.3906 12.5378 62.3906 10.7148C62.3906 8.89193 62.6367 7.38802 63.1289 6.20312C63.6211 5.01823 64.3229 3.9974 65.2344 3.14062C67.112 1.42708 69.6732 0.479167 72.918 0.296875V3.79688C71.7695 3.97917 70.9128 4.40755 70.3477 5.08203C69.7826 5.75651 69.5 6.6224 69.5 7.67969C69.5 9.75781 70.5573 12.3464 72.6719 15.4453C76.3906 20.9141 80.2734 25.5716 84.3203 29.418C85.013 27.5768 85.3594 26.0456 85.3594 24.8242C85.3594 23.5846 85.1953 22.7643 84.8672 22.3633C84.5391 21.944 84.138 21.6432 83.6641 21.4609C83.2083 21.2786 82.7253 21.151 82.2148 21.0781C81.7044 20.987 81.276 20.832 80.9297 20.6133V18.6172H94.2461V20.5586C93.8268 20.7409 93.4076 20.8867 92.9883 20.9961C92.569 21.1055 92.1771 21.2604 91.8125 21.4609C90.974 21.8984 90.3542 22.6641 89.9531 23.7578C88.6771 27.2943 87.4831 29.9831 86.3711 31.8242C88.0846 33.6654 89.2057 34.6953 89.7344 34.9141C90.2812 35.1328 90.737 35.2422 91.1016 35.2422C91.4844 35.2422 91.8216 35.1875 92.1133 35.0781C92.4232 34.9505 92.6966 34.7409 92.9336 34.4492C93.3529 33.9388 93.7448 32.9909 94.1094 31.6055L96.1602 32.5078ZM130.602 3.79688C126.391 4.74479 124.285 10.3594 124.285 20.6406C124.285 30.9036 126.391 36.3724 130.602 37.0469V40.5469H130.027C127.676 40.5469 125.525 40.0273 123.574 38.9883C121.624 37.931 119.956 36.5 118.57 34.6953C115.617 30.849 114.141 26.1367 114.141 20.5586C114.141 15.0169 115.654 10.3229 118.68 6.47656C120.648 3.96094 123.073 2.19271 125.953 1.17188C127.411 0.643229 128.961 0.351562 130.602 0.296875V3.79688ZM133.035 0.296875C135.46 0.533854 137.747 1.35417 139.898 2.75781C140.299 3.01302 140.628 3.14062 140.883 3.14062C141.302 3.14062 141.794 2.47526 142.359 1.14453H144.82V15.3633H142.797C142.378 14.8711 141.895 13.8594 141.348 12.3281C140.801 10.7969 140.327 9.59375 139.926 8.71875C139.543 7.84375 139.051 7.05078 138.449 6.33984C137.064 4.71745 135.259 3.86979 133.035 3.79688V0.296875ZM133.035 37.0469C134.512 36.901 135.551 36.3451 136.152 35.3789C136.772 34.3945 137.082 33.1823 137.082 31.7422C137.082 30.3021 137.055 29.1172 137 28.1875C136.964 27.2578 136.799 26.4193 136.508 25.6719C135.852 24.0312 134.484 23.2109 132.406 23.2109V21.0781H149.113C149.059 21.3516 149.004 21.6159 148.949 21.8711C148.895 22.1081 148.84 22.3542 148.785 22.6094C148.73 22.8646 148.676 23.1016 148.621 23.3203C147.637 23.7578 146.98 24.3229 146.652 25.0156C146.324 25.6901 146.16 26.5195 146.16 27.5039V30.8125C146.16 36.263 143.462 39.362 138.066 40.1094C136.48 40.3281 134.803 40.474 133.035 40.5469V37.0469Z" fill="#CC8617"/>
</svg>
